<?xml version="1.0" encoding="UTF-8" standalone="no"?>
<svg width="50px" height="50px" viewBox="0 0 50 50" version="1.1" xmlns="http://www.w3.org/2000/svg" xmlns:xlink="http://www.w3.org/1999/xlink" xmlns:sketch="http://www.bohemiancoding.com/sketch/ns">
    <!-- Generator: Sketch 3.3.2 (12043) - http://www.bohemiancoding.com/sketch -->
    <title>logo-twitter-inverted</title>
    <desc>Created with Sketch.</desc>
    <defs></defs>
    <g id="Page-1" stroke="none" stroke-width="1" fill="none" fill-rule="evenodd" sketch:type="MSPage">
        <g id="logo-twitter-inverted" sketch:type="MSArtboardGroup" fill="#FFFFFF">
            <path d="M40.064291,12.5220858 C40.064291,12.5220858 40.1679833,12.2388721 39.8068235,12.5220858 C39.4456637,12.8045843 39.0993171,13.1757659 37.8437223,13.5655423 C36.588833,13.9560339 35.8806212,14.0876282 35.8806212,14.0876282 C35.8806212,14.0876282 34.5939893,12 31.1502739,12 C27.7072639,12 26.2915456,14.0554448 25.4549527,15.1975969 C24.6183599,16.3390339 24.4786926,20.0909001 24.4786926,20.0909001 C24.4786926,20.0909001 20.5630711,20.5157206 16.1226392,17.8402095 C11.681502,15.1646984 10.8773571,13.4353785 10.8773571,13.4353785 C10.8773571,13.4353785 10.5556991,13.1743355 10.4908032,13.4024799 C10.4266127,13.6313394 9.23591386,16.6980573 10.2015932,18.883666 C11.1665671,21.0699898 12.7113718,22.0812629 12.7113718,22.0812629 C12.7113718,22.0812629 12.7113718,22.2772239 11.392292,22.0812629 C10.0725067,21.8860171 9.82562014,21.4611966 9.82562014,21.4611966 C9.82562014,21.4611966 9.6542103,22.4073878 10.1049547,23.6146218 C10.5556991,24.8218559 11.9072269,26.5511759 13.1296682,27.2041407 C14.352815,27.8563904 14.8677499,27.9214724 14.8677499,28.0845348 C14.8677499,28.2475972 14.3203671,28.3455777 13.2904972,28.3455777 C12.2606274,28.3455777 11.9714174,28.1174334 12.0680559,28.3455777 C12.1646943,28.5744373 13.1296682,30.629882 14.4494535,31.4780927 C15.7685333,32.3263034 17.795825,32.7175102 18.0532924,32.7833073 C18.3107599,32.8483892 18.1499309,32.8805726 18.0857404,33.0114517 C18.0208445,33.1416155 16.5733836,34.5448106 14.481196,35.1648769 C12.3897138,35.7849433 9.04263692,35.6869628 9.04263692,35.6869628 C9.04263692,35.6869628 8.94670384,35.8500252 9.04263692,35.9801891 C9.13927539,36.1110681 13.2587547,38.4597392 18.7290563,38.6557002 C24.199358,38.8516612 30.3778715,36.437193 34.6581798,30.1399796 C38.9377827,23.8434814 37.8119798,18.6555216 37.8119798,18.6555216 C37.8119798,18.6555216 40.2893105,16.1759715 40.5792259,15.7847647 C40.8684359,15.3928427 41.1259033,15.3928427 40.9333318,15.2297803 C40.7400549,15.0667179 37.3612354,16.1108896 37.3612354,16.1108896 C37.3612354,16.1108896 38.2302762,15.3277608 38.7769537,14.805675 C39.3243366,14.2835891 40.064291,12.5220858 40.064291,12.5220858" id="twitter" sketch:type="MSShapeGroup"></path>
        </g>
    </g>
</svg>